<svg width="14" height="14" viewBox="0 0 14 14" fill="none" xmlns="http://www.w3.org/2000/svg">
<path d="M9.25 2.19995H10C10.8284 2.19995 11.5 2.87152 11.5 3.69995V11.5001C11.5 12.3285 10.8284 13.0001 10 13.0001H4C3.17157 13.0001 2.5 12.3285 2.5 11.5001V3.69995C2.5 2.87153 3.17157 2.19995 4 2.19995H4.75" stroke="white" stroke-width="2" stroke-linecap="round" stroke-linejoin="round"/>
<path d="M8.75024 1H5.25024C4.9741 1 4.75024 1.22386 4.75024 1.5V2.90003C4.75024 3.17618 4.9741 3.40003 5.25024 3.40003H8.75024C9.02639 3.40003 9.25024 3.17618 9.25024 2.90003V1.5C9.25024 1.22386 9.02639 1 8.75024 1Z" stroke="white" stroke-width="2" stroke-linecap="round" stroke-linejoin="round"/>
</svg>
