<svg width="14" height="14" viewBox="0 0 14 14" fill="none" xmlns="http://www.w3.org/2000/svg">
<g clip-path="url(#clip0_433_25335)">
<path d="M7.0001 10.8666C8.54424 9.32247 10.6233 7.24346 11.9868 5.87988C12.7679 5.09883 12.7669 3.83345 11.9859 3.0524L10.5476 1.61416C9.7666 0.833116 8.50123 0.832159 7.72018 1.61321C6.35659 2.97679 4.27758 5.05581 2.73343 6.59995M7.0001 10.8666C6.78185 11.0849 6.53156 11.3352 6.28098 11.5857C5.49993 12.3668 4.2336 12.3668 3.45255 11.5857L2.01431 10.1475C1.23326 9.36645 1.23326 8.10012 2.01431 7.31907C2.26489 7.06849 2.51519 6.81819 2.73343 6.59995M7.0001 10.8666C5.33386 9.20038 4.39967 8.26619 2.73343 6.59995" stroke="white" stroke-width="2" stroke-linecap="round" stroke-linejoin="round"/>
<path d="M12.887 12.9966H5.67029C5.13986 12.9966 4.63115 12.7859 4.25608 12.4109L2.5752 10.73" stroke="white" stroke-width="2" stroke-linecap="round" stroke-linejoin="round"/>
</g>
<defs>
<clipPath id="clip0_433_25335">
<rect width="14" height="14" fill="white"/>
</clipPath>
</defs>
</svg>
