<svg width="14" height="14" viewBox="0 0 14 14" fill="none" xmlns="http://www.w3.org/2000/svg">
<g clip-path="url(#clip0_501_27958)">
<circle cx="7" cy="7" r="1" stroke="white" stroke-width="2"/>
<path d="M9.04167 11.9583C8.38925 12.2267 7.69462 12.3608 7 12.3608C6.30538 12.3608 5.61075 12.2267 4.95833 11.9583M2.04167 9.04167C1.77334 8.38925 1.63917 7.69462 1.63917 7C1.63917 6.30538 1.77334 5.61075 2.04167 4.95833M4.95833 2.04167C5.61075 1.77334 6.30538 1.63917 7 1.63917C7.69462 1.63917 8.38925 1.77334 9.04167 2.04167M11.9583 4.95833C12.2267 5.61075 12.3608 6.30538 12.3608 7C12.3608 7.69462 12.2267 8.38925 11.9583 9.04167" stroke="white" stroke-width="2" stroke-linecap="round" stroke-linejoin="round"/>
</g>
<defs>
<clipPath id="clip0_501_27958">
<rect width="14" height="14" fill="white"/>
</clipPath>
</defs>
</svg>
